# WaveFront *.obj file (generated by CINEMA 4D)

mtllib ./ram.mtl

v -70 -80 0.2526099383831
v 70 -80 0.2526099383831
v -70 -90 5
v 70 -90 5
v -70 -100 5
v 70 -100 5
v -70 -100 -5
v 70 -100 -5
v -70 -90 -5
v 70 -90 -5
v -70 -80 -5
v 70 -80 -5
v 70 80 0.2526099383831
v -70 80 0.2526099383831
v 70 90 5
v -70 90 5
v 70 100 5
v -70 100 5
v 70 100 -5
v -70 100 -5
v 70 90 -5
v -70 90 -5
v 70 80 -5
v -70 80 -5
v -60 100 0.2526099383831
v -60 -100 0.2526099383831
v -70 100 5
v -70 -100 5
v -80 100 5
v -80 -100 5
v -80 100 -5
v -80 -100 -5
v -70 100 -5
v -70 -100 -5
v -60 100 -5
v -60 -100 -5
v 60 -100 0.2526099383831
v 60 100 0.2526099383831
v 70 -100 5
v 70 100 5
v 80 -100 5
v 80 100 5
v 80 -100 -5
v 80 100 -5
v 70 -100 -5
v 70 100 -5
v 60 -100 -5
v 60 100 -5
# 48 vertices

vn 0 0.42886444926262 0.90336883068085
vn 0 0.21980804204941 0.97554314136505
vn 0 0 1
vn 0 -1 0
vn 0 0 -1
vn 0 1 0
vn 1 0 0
vn -1 0 0
vn 0 -0.42886444926262 0.90336883068085
vn 0 -0.21980804204941 0.97554314136505
vn 0.42886444926262 0 0.90336883068085
vn 0.21980802714825 0 0.97554314136505
vn -0.42886444926262 0 0.90336883068085
vn -0.21980802714825 0 0.97554314136505
# 14 normals

vt 0.12113723158836 0.23752927780151 0
vt 0.12113723158836 0.73742860555649 0
vt 0.16808849573135 0.73742860555649 0
vt 0.16808849573135 0.23752927780151 0
vt 0.21503977477551 0.73742860555649 0
vt 0.21503977477551 0.23752927780151 0
vt 0.54057842493057 0.23752927780151 0
vt 0.54057842493057 0.73742860555649 0
vt 0.58752971887588 0.73742860555649 0
vt 0.58752971887588 0.23752927780151 0
vt 0.00907823070884 0.23752927780151 0
vt 0.00907823070884 0.73742860555649 0
vt 0.05602950230241 0.73742860555649 0
vt 0.05602950230241 0.23752927780151 0
vt 0.10298077017069 0.73742860555649 0
vt 0.10298077017069 0.23752927780151 0
vt 0.96626007556915 0.49319660663605 0
vt 0.96626007556915 0.99309587478638 0
vt 0.99092179536819 0.99309587478638 0
vt 0.99092179536819 0.49319660663605 0
vt 0.67079389095306 0.7186730504036 0
vt 0.67079389095306 0.73742860555649 0
vt 0.71774518489838 0.73742860555649 0
vt 0.71774518489838 0.70172148942947 0
vt 0.76469641923904 0.73742860555649 0
vt 0.76469641923904 0.70172148942947 0
vt 0.60568618774414 0.43224596977234 0
vt 0.60568618774414 0.45100152492523 0
vt 0.65263742208481 0.46795308589935 0
vt 0.65263742208481 0.43224596977234 0
vt 0.69958871603012 0.46795308589935 0
vt 0.69958871603012 0.43224596977234 0
vt 0.49776029586792 0.73742860555649 0
vt 0.49776029586792 0.23752927780151 0
vt 0.47547069191933 0.23752927780151 0
vt 0.47547069191933 0.73742860555649 0
vt 0.45731422305107 0.73742860555649 0
vt 0.45731422305107 0.23752927780151 0
vt 0.41036295890808 0.23752927780151 0
vt 0.41036295890808 0.73742860555649 0
vt 0.39220649003983 0.73742860555649 0
vt 0.39220649003983 0.23752927780151 0
vt 0.34525522589684 0.23752927780151 0
vt 0.34525522589684 0.73742860555649 0
vt 0.3270987868309 0.73742860555649 0
vt 0.3270987868309 0.23752927780151 0
vt 0.28014749288559 0.23752927780151 0
vt 0.28014749288559 0.73742860555649 0
vt 0.2331962287426 0.23752927780151 0
vt 0.2331962287426 0.73742860555649 0
vt 0.52242195606232 0.73742860555649 0
vt 0.52242195606232 0.23752927780151 0
vt 0.69958871603012 0.63525462150574 0
vt 0.69958871603012 0.61649906635284 0
vt 0.65263742208481 0.61649906635284 0
vt 0.65263742208481 0.65220618247986 0
vt 0.60568618774414 0.61649906635284 0
vt 0.60568618774414 0.65220618247986 0
vt 0.69958871603012 0.6026908159256 0
vt 0.69958871603012 0.58393526077271 0
vt 0.65263742208481 0.56698375940323 0
vt 0.65263742208481 0.6026908159256 0
vt 0.60568618774414 0.56698375940323 0
vt 0.60568618774414 0.6026908159256 0
vt 0.00907823070884 0.90787345170975 0
vt 0.94810366630554 0.90787345170975 0
vt 0.94810366630554 0.87216639518738 0
vt 0.00907823070884 0.87216639518738 0
vt 0.94810366630554 0.83645927906036 0
vt 0.00907823070884 0.83645927906036 0
vt 0.00907823070884 0.07517504692078 0
vt 0.94810366630554 0.07517504692078 0
vt 0.94810366630554 0.03946793079376 0
vt 0.00907823070884 0.03946793079376 0
vt 0.94810366630554 0.92168170213699 0
vt 0.00907823070884 0.92168170213699 0
vt 0.00907823070884 0.95738875865936 0
vt 0.94810366630554 0.95738875865936 0
vt 0.00907823070884 0.99309587478638 0
vt 0.94810366630554 0.99309587478638 0
vt 0.00907823070884 0.02565968036652 0
vt 0.94810366630554 0.02565968036652 0
vt 0.94810366630554 0.00690412521362 0
vt 0.00907823070884 0.00690412521362 0
vt 0.69308346509933 0.55317550897598 0
vt 0.71774518489838 0.55317550897598 0
vt 0.71774518489838 0.51746839284897 0
vt 0.67079389095306 0.51746839284897 0
vt 0.71774518489838 0.4817613363266 0
vt 0.67079389095306 0.4817613363266 0
vt 0.71774518489838 0.68791323900223 0
vt 0.74240684509277 0.68791323900223 0
vt 0.76469641923904 0.65220618247986 0
vt 0.71774518489838 0.65220618247986 0
vt 0.76469641923904 0.61649906635284 0
vt 0.71774518489838 0.61649906635284 0
vt 0.94810366630554 0.15725409984589 0
vt 0.00907823070884 0.15725409984589 0
vt 0.00907823070884 0.17420566082001 0
vt 0.94810366630554 0.17420566082001 0
vt 0.94810366630554 0.18801391124725 0
vt 0.00907823070884 0.18801391124725 0
vt 0.00907823070884 0.22372102737427 0
vt 0.94810366630554 0.22372102737427 0
vt 0.94810366630554 0.08898329734802 0
vt 0.00907823070884 0.08898329734802 0
vt 0.00907823070884 0.12469041347504 0
vt 0.94810366630554 0.12469041347504 0
vt 0.00907823070884 0.82265102863312 0
vt 0.94810366630554 0.82265102863312 0
vt 0.94810366630554 0.7869439125061 0
vt 0.00907823070884 0.7869439125061 0
vt 0.94810366630554 0.75123679637909 0
vt 0.00907823070884 0.75123679637909 0
vt 0.94810366630554 0.13849866390228 0
vt 0.00907823070884 0.13849866390228 0
vt 0.63034784793854 0.4817613363266 0
vt 0.60568618774414 0.4817613363266 0
vt 0.60568618774414 0.51746839284897 0
vt 0.65263742208481 0.51746839284897 0
vt 0.60568618774414 0.55317550897598 0
vt 0.65263742208481 0.55317550897598 0
vt 0.65263742208481 0.6660144329071 0
vt 0.62797576189041 0.6660144329071 0
vt 0.60568618774414 0.70172148942947 0
vt 0.65263742208481 0.70172148942947 0
vt 0.60568618774414 0.73742860555649 0
vt 0.65263742208481 0.73742860555649 0
# 128 texture coordinates

o Cube.4
usemtl Mat
f 3/4/2 4/3/2 2/2/1 1/1/1
f 5/6/3 6/5/3 4/3/2 3/4/2
f 7/10/4 8/9/4 6/8/4 5/7/4
f 9/14/5 10/13/5 8/12/5 7/11/5
f 11/16/5 12/15/5 10/13/5 9/14/5
f 1/20/6 2/19/6 12/18/6 11/17/6
f 4/24/7 10/23/7 12/22/7 2/21/7
f 6/26/7 8/25/7 10/23/7 4/24/7
f 9/30/8 3/29/8 1/28/8 11/27/8
f 7/32/8 5/31/8 3/29/8 9/30/8
f 15/36/10 16/35/10 14/34/9 13/33/9
f 17/40/3 18/39/3 16/38/10 15/37/10
f 19/44/6 20/43/6 18/42/6 17/41/6
f 21/48/5 22/47/5 20/46/5 19/45/5
f 23/50/5 24/49/5 22/47/5 21/48/5
f 13/33/4 14/34/4 24/52/4 23/51/4
f 16/56/8 22/55/8 24/54/8 14/53/8
f 18/58/8 20/57/8 22/55/8 16/56/8
f 21/62/7 15/61/7 13/60/7 23/59/7
f 19/64/7 17/63/7 15/61/7 21/62/7
f 27/68/12 28/67/12 26/66/11 25/65/11
f 29/70/3 30/69/3 28/67/12 27/68/12
f 31/74/8 32/73/8 30/72/8 29/71/8
f 33/78/5 34/77/5 32/76/5 31/75/5
f 35/80/5 36/79/5 34/77/5 33/78/5
f 25/84/7 26/83/7 36/82/7 35/81/7
f 28/88/4 34/87/4 36/86/4 26/85/4
f 30/90/4 32/89/4 34/87/4 28/88/4
f 33/94/6 27/93/6 25/92/6 35/91/6
f 31/96/6 29/95/6 27/93/6 33/94/6
f 39/100/14 40/99/14 38/98/13 37/97/13
f 41/104/3 42/103/3 40/102/14 39/101/14
f 43/108/7 44/107/7 42/106/7 41/105/7
f 45/112/5 46/111/5 44/110/5 43/109/5
f 47/114/5 48/113/5 46/111/5 45/112/5
f 37/97/8 38/98/8 48/116/8 47/115/8
f 40/120/6 46/119/6 48/118/6 38/117/6
f 42/122/6 44/121/6 46/119/6 40/120/6
f 45/126/4 39/125/4 37/124/4 47/123/4
f 43/128/4 41/127/4 39/125/4 45/126/4

